<svg xmlns="http://www.w3.org/2000/svg" viewBox="0 0 800 600" width="800" height="600" role="img" aria-label="Assembled board with surface mount components">
  <rect width="800" height="600" fill="#08262c"/>
  <rect x="30" y="30" width="740" height="540" rx="16" fill="#123a45" stroke="#1e6c7e" stroke-width="4"/>
  <g fill="#0b1c22" stroke="#c9cfd4" stroke-width="2">
    <rect x="290" y="210" width="180" height="140" rx="10"/>
  </g>
  <g fill="#c9cfd4">
    <rect x="270" y="230" width="20" height="10"/><rect x="270" y="260" width="20" height="10"/>
    <rect x="270" y="290" width="20" height="10"/><rect x="270" y="320" width="20" height="10"/>
    <rect x="470" y="230" width="20" height="10"/><rect x="470" y="260" width="20" height="10"/>
    <rect x="470" y="290" width="20" height="10"/><rect x="470" y="320" width="20" height="10"/>
  </g>
  <g fill="#2b2b2b">
    <rect x="110" y="120" width="56" height="26" rx="3"/><rect x="190" y="120" width="56" height="26" rx="3"/>
    <rect x="110" y="170" width="56" height="26" rx="3"/><rect x="560" y="140" width="56" height="26" rx="3"/>
    <rect x="640" y="140" width="56" height="26" rx="3"/><rect x="560" y="430" width="56" height="26" rx="3"/>
  </g>
  <g fill="#b8b8c0">
    <rect x="130" y="400" width="90" height="60" rx="6"/>
    <rect x="250" y="420" width="60" height="40" rx="6"/>
  </g>
  <g fill="#d6b24a">
    <circle cx="680" cy="300" r="10"/><circle cx="680" cy="340" r="10"/><circle cx="680" cy="380" r="10"/>
    <circle cx="90" cy="300" r="10"/><circle cx="90" cy="340" r="10"/>
  </g>
  <g stroke="#d6b24a" stroke-width="4" fill="none">
    <path d="M100 300 H240 M100 340 H240 M540 300 H670 M540 340 H670"/>
  </g>
</svg>
